<?xml version="1.0"?><svg width="640" height="480" xmlns="http://www.w3.org/2000/svg">
 <title>Black keep calm crown</title>
 <metadata id="metadata2401">image/svg+xmlCrown with cross on the topcrown religious cross king</metadata>
 <g>
  <title>Layer 1</title>
  <g id="layer1">
   <g id="g2392">
    <path d="m471.927338,174.51004c-37.212646,-15.209 -75.185425,-22.433899 -113.517029,-26.022324c10.608459,-28.055374 -0.083893,-52.035294 -20.58725,-60.49102l-0.974792,-12.580109l8.917999,0l8.173248,8.702126c13.829498,-16.891594 11.790009,-32.940403 -1.113342,-48.385555l-3.716187,7.742764l-10.03717,0.474586l0,-6.283619l6.313232,-9.676609c-15.925354,-10.308571 -32.406403,-10.46842 -49.443115,-0.474581l8.917999,6.77091l3.343811,10.161259l-10.403717,0l-7.060028,-7.258057c-11.446808,14.841209 -11.197174,32.58551 0.738953,53.235321l6.22168,-13.899536l8.64502,0.357841l-0.602417,11.488609c-24.90387,14.55175 -30.28125,34.915329 -16.124268,61.095039c-41.759262,1.855347 -81.52977,12.344055 -119.953049,28.730392c-15.202057,-21.819748 -31.659714,-16.447479 -44.356293,-49.152115c2.636047,39.871399 -7.106781,51.431061 -6.229416,75.707657c-14.203735,8.516891 -26.740524,20.660233 -37.600479,36.432678c-20.275238,-24.525299 -38.370647,-33.448212 -56.405588,-41.873734c15.597792,29.730591 23.67161,60.539261 35.51425,90.814682c-1.317978,12.777832 1.873692,22.383392 15.042171,25.012543l33.837479,65.256989c-4.035873,13.414795 0.974876,25.378021 11.279198,27.192505l14.203743,25.012604c58.491882,-11.836334 117.410599,-20.957123 175.902451,-21.383514c67.676941,-0.477142 133.275513,7.722534 202.62738,18.655365l13.365356,-28.816711c10.998413,-0.90094 17.822449,-13.046814 12.109802,-27.727997l33.001099,-63.62265c15.461304,-0.903442 17.411011,-9.963379 15.042053,-28.273651l30.495789,-87.007935c-17.266785,16.495712 -38.302368,22.65242 -51.806274,39.693954c-10.616211,-14.138321 -23.221191,-24.832581 -37.181335,-33.171829c1.949829,-32.801071 -7.798767,-45.490067 -7.935425,-72.327301c-14.546783,25.62674 -21.996765,11.014053 -48.659302,45.898651l0.013763,-0.007629zm16.055969,122.793518c5.38324,-10.369476 -0.007904,-11.409973 -4.698883,-5.174591c-14.882233,27.32196 -9.087738,46.106781 13.745605,56.049835c31.310669,5.035004 40.228699,-12.55954 48.454651,-31.562622c3.144897,-7.950897 0.814941,-12.770203 -3.60321,-2.349976c-9.664673,12.600159 -8.058105,23.563477 -28.71167,27.687378c4.607178,-17.597076 7.332947,-47.852753 24.196106,-80.434814c5.170776,-9.489044 11.386475,-8.674438 17.592407,-8.319153c-9.473633,-13.132813 -21.994873,-23.393433 -35.375732,-32.861954l-4.394836,9.427917c19.680481,3.012375 26.678223,19.12236 13.312866,45.837265c-6.132019,23.921265 -32.231018,42.916748 -31.827362,65.041229c-14.706818,-7.077911 -17.151703,-18.794922 -8.682159,-43.320221l-0.007782,-0.020294zm-130.540192,-120.940643c1.858093,8.278046 0.508911,16.624847 -4.045624,25.040222c29.125061,-14.650482 52.010925,-3.499619 52.141541,33.349457c-1.058716,26.418304 -26.344727,51.646027 -20.076294,86.888458c-22.400391,-3.509796 -28.721375,-16.059174 -27.540009,-46.840179c-4.022156,-14.523315 -16.999603,-10.140533 -12.932434,12.013977c8.658722,50.093597 60.638458,65.866028 94.80545,30.146515c7.600037,-8.108307 11.973358,-17.942261 13.113892,-29.512115c0.062378,-14.073853 -8.506622,-12.290527 -12.29895,6.415588c-1.202911,21.322601 -14.006836,30.829193 -34.722626,32.237701c10.366608,-24.068542 3.53479,-47.802032 5.309143,-71.702271c5.621002,-37.541931 32.178314,-62.036514 55.224091,-41.239243l0.534058,-17.318207c-32.08075,-13.929977 -76.337494,-19.96489 -109.512238,-19.490295l0,0.010391zm-69.78653,-0.951675c-1.76059,8.316116 -0.313873,16.6353 4.340149,24.961823c-29.290802,-14.077469 -52.048004,-2.469543 -51.736084,34.379532c1.362854,26.397949 24.759613,55.03656 18.902679,90.408386c22.353607,-3.95639 32.178284,-22.989929 30.663269,-50.834656c3.852722,-14.60199 13.90741,-9.934967 11.575592,11.300812c-8.064148,50.248444 -59.854721,67.053741 -94.439011,32.01944c-7.691589,-7.950928 -12.18573,-17.706268 -13.456955,-29.245605c-0.230087,-14.067047 8.370163,-12.460632 12.374924,6.166809c1.454453,21.30481 14.363617,30.552582 35.095078,31.555023c-10.655228,-23.862915 -4.096405,-47.723358 -6.145584,-71.582947c-6.061676,-37.422653 -27.608063,-54.245468 -55.703705,-40.140656l-0.738937,-17.30777c38.963333,-13.699036 75.824951,-21.104095 109.276337,-21.659882l-0.007751,-0.020309zm-127.37175,125.282791c-2.216873,-9.33905 1.064545,-11.062256 4.698837,-5.174561c14.004822,26.745911 5.293472,43.627319 -13.747528,56.039673c-31.310661,5.037567 -41.340088,-12.074799 -49.573792,-31.07785c-3.14489,-7.950928 -0.44062,-12.7677 3.975487,-2.350037c9.664803,12.600189 6.946899,27.441223 37.26519,31.077911c-21.339813,-26.309357 -15.139679,-51.725464 -32.010643,-84.310272c-5.170731,-9.488831 -11.38446,-8.67392 -17.59243,-8.308777c11.242149,-12.371735 23.205666,-22.878235 35.377808,-32.861969l3.655716,7.483963c-19.680519,6.405441 -25.933281,21.056168 -12.567879,47.771042c6.131889,23.921326 32.232903,42.916748 31.829247,65.051453c11.727646,-6.60083 17.149811,-18.794983 8.682159,-43.320251" id="path16" stroke="#ffffff" fill-rule="evenodd" fill="#ffffff"/>
    <path d="m123.37645,212.615143l-40.883789,37.204132l3.975487,7.060425l40.883789,-38.612885l-3.975487,-5.651672zm401.232376,-2.667236c13.381104,5.95874 25.773621,16.447479 37.181458,31.456055l-4.455261,6.2836c-11.774353,-15.561829 -23.540955,-24.921249 -35.315308,-31.453247l2.597046,-6.286407l-0.007935,0zm-171.77478,-55.17688l1.11319,11.607941l4.827637,0.477081c37.539948,1.040497 75.11908,7.166748 109.687653,23.713226l1.850311,-7.258087c-35.909943,-15.871445 -75.635742,-24.296936 -117.492371,-28.550278l0.01358,0.010117zm-179.131195,30.532318c32.809982,-15.424744 73.366257,-24.733414 117.197998,-30.610703c1.058746,4.352066 1.774323,7.364441 0.083954,11.726898c-39.885574,2.715469 -77.098083,11.252884 -115.156799,25.923889l-2.13298,-7.040085l0.007828,0zm123.359222,-41.178101l24.539215,-38.227142l25.650604,39.683563c15.125946,-19.746597 5.042053,-51.547775 -25.650604,-50.803963c-28.01947,1.903381 -38.986633,27.32933 -24.539215,49.357414l0,-0.009872zm-5.574219,-93.403996l5.19986,3.202721l18.957153,0.177639l-0.738922,-15.97036l-6.404816,-7.790909c6.923492,-5.045229 18.302094,-4.12392 27.463806,-0.47724l-6.176727,8.278391l-0.044861,15.970268l14.546967,0.11953l7.804871,-6.890388c3.899292,9.11097 3.899292,17.498402 0,25.159763l-5.574341,-4.837044l-16.724792,0.474564l0,10.161339l2.224579,11.123184l-19.331512,0.477371l2.971375,-21.769264l-18.957214,0.959038l-5.201813,4.829697c-2.778351,-8.46611 -2.778351,-16.209179 0,-23.228748l-0.013611,0.030449zm-158.530441,109.224384c16.86908,13.630539 40.54068,15.615082 42.619125,65.883804c27.982468,-26.060623 44.798889,1.944214 51.812042,25.449066c5.119995,17.147949 -3.70842,37.985321 4.653946,67.477081c-11.187531,-2.537811 -18.111008,-12.480896 -20.77626,-29.819153c-6.032486,-28.88446 -30.54837,-21.727905 -22.909317,9.011719c16.153488,39.83075 44.539612,47.743652 69.930893,44.094269c27.890869,-4.004608 52.194153,-28.669525 49.938416,-69.055542c-7.631317,-21.025696 -15.978119,-21.728668 -25.040405,-2.070618c-5.324677,14.561127 2.657501,38.134766 -15.979919,43.687469c1.241913,-28.194977 -22.018265,-56.396759 -21.842819,-78.363968c3.899445,-37.333588 24.683548,-41.726776 57.008102,-23.573624c-17.762024,-46.116898 4.256256,-71.774323 20.241974,-93.622261c17.04657,24.040611 34.272339,44.381081 20.244019,92.926659c38.234314,-26.964111 66.602661,2.725586 56.32962,30.057968c-8.370148,22.274017 -23.21344,56.533813 -20.63205,72.565063c-28.058441,-7.159149 0.34903,-56.635559 -29.832794,-56.863953c-20.951721,6.702301 -16.512207,43.687683 6.923462,67.271484c13.137268,12.937683 29.123138,18.487854 47.951691,16.635284c23.098358,-0.52533 41.148895,-18.627441 55.733002,-48.753662c5.065399,-19.479675 -12.40625,-31.732178 -19.518921,-14.493378c-4.889801,22.017975 -12.216949,36.886871 -25.78891,41.328064c5.026459,-23.484802 1.737183,-51.676422 5.316925,-74.694275c11.247986,-32.616104 28.292542,-40.120361 51.125732,-22.495346c2.156311,-53.9384 30.755035,-54.681992 44.327026,-74.984375c2.604797,26.339798 17.836243,40.160934 -10.206726,83.709335c22.164368,3.796768 31.661438,17.802673 13.291199,54.27536c-7.098938,15.544067 -19.627838,27.79657 -25.644714,43.815155c-11.811462,-15.98053 1.692352,-23.47467 2.544464,-35.222137c2.544281,-19.221313 -14.798492,-16.46521 -23.823822,11.092773c-3.092224,31.892517 7.13797,52.809082 46.68042,49.568268c15.354065,-7.187042 26.793152,-18.964966 32.505798,-37.45285c2.604797,-10.328827 -0.929993,-16.427185 -8.454041,-12.630615c-7.822266,10.874481 -17.830139,34.955658 -23.488342,32.65387c3.663574,-15.88916 9.130554,-32.722382 12.801941,-48.614105c7.670166,-28.8974 18.545715,-36.934387 32.636414,-24.118744c3.556396,-24.208069 22.75531,-36.68898 35.93158,-44.469849l-20.600891,58.924652c-18.613953,-3.707703 -18.461914,15.731842 -14.539001,26.159668l-32.406433,64.843323c-16.992004,2.984467 -23.336395,14.523804 -12.628296,26.299225l-7.091248,22.939178c-125.909485,-34.567413 -251.140503,-34.775482 -375.626694,2.766174l-10.120987,-18.716278c13.669479,-13.402069 5.856934,-28.659363 -10.122993,-29.123779l-34.629135,-63.110016c9.67849,-13.006226 1.635834,-30.263275 -15.445747,-27.735596c-6.878666,-19.647156 -9.421085,-35.548981 -20.647648,-58.965286c18.118843,6.692154 34.32497,20.591995 38.224468,45.789505c9.939674,-16.404358 20.602783,-10.625488 31.965714,17.327637c5.149261,18.023376 4.151039,32.765503 15.445824,54.088104c-15.979996,-4.618805 -17.044563,-21.731201 -25.566833,-32.59552c-6.215721,-7.395142 -15.096703,0.456818 -9.05645,13.176239c23.884117,44.84552 61.005013,52.243134 78.848885,7.623596c4.082733,-20.104462 -1.064545,-35.600281 -15.445724,-46.4646c-9.586838,0 -11.187546,9.011749 -6.389313,20.797272c4.965958,9.011719 8.339066,15.257263 2.125229,29.126312c-12.877914,-28.570557 -25.40686,-37.630463 -31.965767,-52.798889c-10.920403,-25.278534 -8.239548,-42.467056 19.177544,-44.976913c-24.948753,-34.090286 -13.936707,-49.347534 -10.121078,-75.588379l0.007828,0.010132zm349.800644,82.62825c6.124084,1.763763 9.543762,7.623779 7.607819,13.04425c-1.934082,5.413177 -8.514557,8.397614 -14.64447,6.634064c-6.124023,-1.766541 -9.543884,-7.623779 -7.60968,-13.036896c1.935974,-5.413116 8.508484,-8.397583 14.638428,-6.631073l0.007904,-0.010345zm1.62207,-5.679352c9.177338,2.715393 14.303162,11.737305 11.402008,20.07373c-2.895203,8.336945 -12.757019,12.924988 -21.94223,10.209595c-9.177368,-2.715454 -14.303162,-11.737366 -11.402039,-20.07373c2.895416,-8.33696 12.757202,-12.927826 21.934509,-10.209595l0.007751,0zm89.131775,47.791046c4.577942,0 8.317566,4.123932 8.317566,9.17926c0,5.055328 -3.739624,9.17923 -8.317566,9.17923c-4.577942,0 -8.317444,-4.123901 -8.317444,-9.17923c0,-5.055328 3.739502,-9.17926 8.317444,-9.17926zm-45.955078,91.368439c4.57605,0 8.315674,4.123932 8.315674,9.181763c0,5.055328 -3.739624,9.17923 -8.315674,9.17923c-4.577942,0 -8.317444,-4.123901 -8.317444,-9.17923c0,-5.057831 3.739502,-9.181763 8.317444,-9.181763zm-78.880127,-26.527618c8.171356,0.951691 14.83551,9.141144 14.83551,18.211243c0,9.080261 -6.664154,15.703949 -14.83551,14.752258c-8.165466,-0.951721 -14.829651,-9.141174 -14.829651,-18.221405c0,-9.070129 6.664215,-15.703918 14.829651,-14.742096zm-0.389862,5.344604c5.712677,0.664856 10.374512,6.3927 10.374512,12.737213c0,6.344513 -4.661835,10.975983 -10.374512,10.311096c-5.710785,-0.664917 -10.37262,-6.395264 -10.37262,-12.739777c0,-6.344482 4.661835,-10.97345 10.37262,-10.308533zm-124.447205,-137.538101c10.959442,0 19.893097,8.458755 19.893097,18.835541c0,10.369431 -8.933655,18.835556 -19.893097,18.835556c-10.959442,0 -19.900848,-8.455963 -19.900848,-18.835556c0,-10.369446 8.941406,-18.835541 19.900848,-18.835541zm-0.547882,4.699997c8.262909,0 15.010925,6.136368 15.010925,13.66098c0,7.514435 -6.740173,13.651062 -15.010925,13.651062c-8.26297,0 -15.010925,-6.136627 -15.010925,-13.651062c0,-7.524612 6.740112,-13.66098 15.010925,-13.66098zm0.183228,113.982269c9.764191,0 17.730896,7.821503 17.730896,17.416901c0,9.597992 -7.960754,17.419434 -17.730896,17.419434c-9.764191,0 -17.730743,-7.821442 -17.730743,-17.419434c0,-9.595398 7.95874,-17.416901 17.730743,-17.416901zm-0.366547,5.651672c6.771484,0 12.300903,5.600922 12.300903,12.480865c0,6.869843 -5.521698,12.480927 -12.300903,12.480927c-6.769409,0 -12.298798,-5.600922 -12.298798,-12.480927c0,-6.869781 5.521545,-12.480865 12.298798,-12.480865zm-154.864883,-98.427826c6.57254,0 11.942154,5.283447 11.942154,11.764984c0,6.4841 -5.361786,11.768066 -11.942154,11.768066c-6.574402,0 -11.936188,-5.283966 -11.936188,-11.768066c0,-6.481537 5.361786,-11.764984 11.936188,-11.764984zm0.540131,-4.284042c9.268967,0 16.824188,7.445908 16.824188,16.584488c0,9.131287 -7.555222,16.584564 -16.824188,16.584564c-9.261215,0 -16.824203,-7.443359 -16.824203,-16.584564c0,-9.128204 7.555161,-16.584488 16.824203,-16.584488zm30.212952,112.089005c8.370132,0 15.194214,7.456055 15.194214,16.584534c0,9.131042 -6.824081,16.584564 -15.194214,16.584564c-8.370163,0 -15.194229,-7.44342 -15.194229,-16.584564c0,-9.128479 6.824066,-16.584534 15.194229,-16.584534zm0.183289,5.699921c5.878387,0 10.668884,4.966461 10.668884,11.062286c0,6.088165 -4.790497,11.064789 -10.668884,11.064789c-5.872604,0 -10.670853,-4.966461 -10.670853,-11.064789c0,-6.095825 4.790497,-11.062286 10.670853,-11.062286zm-78.34005,25.596283c4.57798,0 8.317528,3.865051 8.317528,8.623413c0,4.750763 -3.731796,8.626038 -8.317528,8.626038c-4.577957,0 -8.31752,-3.867645 -8.31752,-8.626038c0,-4.74823 3.739563,-8.623413 8.31752,-8.623413zm-48.308426,-94.672668c4.279655,0 7.775513,4.403076 7.775513,9.80603c0,5.403015 -3.495857,9.803528 -7.775513,9.803528c-4.281563,0 -7.777397,-4.400513 -7.777397,-9.803528c0,-5.402954 3.495834,-9.80603 7.777397,-9.80603" id="path18" stroke="#ffffff" fill-rule="evenodd" fill="#ffffff"/>
   </g>
  </g>
 </g>
</svg>